<mxfile host="app.diagrams.net" modified="2024-02-16T07:48:52.024Z" agent="Mozilla/5.0 (Windows NT 10.0; Win64; x64) AppleWebKit/537.36 (KHTML, like Gecko) Chrome/121.0.0.0 Safari/537.36" etag="tozKc5UuyEqQ3oOTSlKW" version="23.1.5" type="github">
  <diagram name="Page-1" id="b520641d-4fe3-3701-9064-5fc419738815">
    <mxGraphModel dx="1554" dy="1211" grid="1" gridSize="10" guides="1" tooltips="1" connect="1" arrows="1" fold="1" page="1" pageScale="1" pageWidth="1100" pageHeight="850" background="none" math="0" shadow="0">
      <root>
        <mxCell id="0" />
        <mxCell id="1" parent="0" />
        <mxCell id="2debaab0fafb2da2-10" value="Object" style="html=1;rounded=0;shadow=0;comic=0;labelBackgroundColor=none;strokeWidth=2;fontFamily=Verdana;fontSize=12;align=center;shape=mxgraph.ios7ui.horLines;" parent="1" vertex="1">
          <mxGeometry x="172.5" y="440" width="135" height="50" as="geometry" />
        </mxCell>
        <mxCell id="21ea969265ad0168-6" value="Function" style="swimlane;html=1;fontStyle=0;childLayout=stackLayout;horizontal=1;startSize=26;fillColor=#e0e0e0;horizontalStack=0;resizeParent=1;resizeLast=0;collapsible=1;marginBottom=0;swimlaneFillColor=#ffffff;align=center;rounded=1;shadow=0;comic=0;labelBackgroundColor=none;strokeWidth=1;fontFamily=Verdana;fontSize=12" parent="1" vertex="1">
          <mxGeometry x="160" y="74" width="160" height="110" as="geometry" />
        </mxCell>
        <mxCell id="21ea969265ad0168-7" value="Row 1" style="text;html=1;strokeColor=none;fillColor=none;spacingLeft=4;spacingRight=4;whiteSpace=wrap;overflow=hidden;rotatable=0;points=[[0,0.5],[1,0.5]];portConstraint=eastwest;" parent="21ea969265ad0168-6" vertex="1">
          <mxGeometry y="26" width="160" height="26" as="geometry" />
        </mxCell>
        <mxCell id="21ea969265ad0168-8" value="Row 2" style="text;html=1;strokeColor=none;fillColor=none;spacingLeft=4;spacingRight=4;whiteSpace=wrap;overflow=hidden;rotatable=0;points=[[0,0.5],[1,0.5]];portConstraint=eastwest;" parent="21ea969265ad0168-6" vertex="1">
          <mxGeometry y="52" width="160" height="26" as="geometry" />
        </mxCell>
        <mxCell id="21ea969265ad0168-9" value="Row 3" style="text;html=1;strokeColor=none;fillColor=none;spacingLeft=4;spacingRight=4;whiteSpace=wrap;overflow=hidden;rotatable=0;points=[[0,0.5],[1,0.5]];portConstraint=eastwest;" parent="21ea969265ad0168-6" vertex="1">
          <mxGeometry y="78" width="160" height="26" as="geometry" />
        </mxCell>
        <mxCell id="21ea969265ad0168-10" value="Function" style="swimlane;html=1;fontStyle=0;childLayout=stackLayout;horizontal=1;startSize=26;fillColor=#e0e0e0;horizontalStack=0;resizeParent=1;resizeLast=0;collapsible=1;marginBottom=0;swimlaneFillColor=#ffffff;align=center;rounded=1;shadow=0;comic=0;labelBackgroundColor=none;strokeWidth=1;fontFamily=Verdana;fontSize=12" parent="1" vertex="1">
          <mxGeometry x="560" y="74" width="160" height="130" as="geometry" />
        </mxCell>
        <mxCell id="21ea969265ad0168-11" value="Row 1" style="text;html=1;strokeColor=none;fillColor=none;spacingLeft=4;spacingRight=4;whiteSpace=wrap;overflow=hidden;rotatable=0;points=[[0,0.5],[1,0.5]];portConstraint=eastwest;" parent="21ea969265ad0168-10" vertex="1">
          <mxGeometry y="26" width="160" height="26" as="geometry" />
        </mxCell>
        <mxCell id="21ea969265ad0168-12" value="Row 2" style="text;html=1;strokeColor=none;fillColor=none;spacingLeft=4;spacingRight=4;whiteSpace=wrap;overflow=hidden;rotatable=0;points=[[0,0.5],[1,0.5]];portConstraint=eastwest;" parent="21ea969265ad0168-10" vertex="1">
          <mxGeometry y="52" width="160" height="26" as="geometry" />
        </mxCell>
        <mxCell id="21ea969265ad0168-52" value="Row 3" style="text;html=1;strokeColor=none;fillColor=none;spacingLeft=4;spacingRight=4;whiteSpace=wrap;overflow=hidden;rotatable=0;points=[[0,0.5],[1,0.5]];portConstraint=eastwest;" parent="21ea969265ad0168-10" vertex="1">
          <mxGeometry y="78" width="160" height="26" as="geometry" />
        </mxCell>
        <mxCell id="21ea969265ad0168-13" value="Row 4" style="text;html=1;strokeColor=none;fillColor=none;spacingLeft=4;spacingRight=4;whiteSpace=wrap;overflow=hidden;rotatable=0;points=[[0,0.5],[1,0.5]];portConstraint=eastwest;" parent="21ea969265ad0168-10" vertex="1">
          <mxGeometry y="104" width="160" height="26" as="geometry" />
        </mxCell>
        <mxCell id="21ea969265ad0168-14" value="Function" style="swimlane;html=1;fontStyle=0;childLayout=stackLayout;horizontal=1;startSize=26;fillColor=#e0e0e0;horizontalStack=0;resizeParent=1;resizeLast=0;collapsible=1;marginBottom=0;swimlaneFillColor=#ffffff;align=center;rounded=1;shadow=0;comic=0;labelBackgroundColor=none;strokeWidth=1;fontFamily=Verdana;fontSize=12" parent="1" vertex="1">
          <mxGeometry x="160" y="266" width="160" height="110" as="geometry" />
        </mxCell>
        <mxCell id="21ea969265ad0168-15" value="Row 1" style="text;html=1;strokeColor=none;fillColor=none;spacingLeft=4;spacingRight=4;whiteSpace=wrap;overflow=hidden;rotatable=0;points=[[0,0.5],[1,0.5]];portConstraint=eastwest;" parent="21ea969265ad0168-14" vertex="1">
          <mxGeometry y="26" width="160" height="26" as="geometry" />
        </mxCell>
        <mxCell id="21ea969265ad0168-16" value="Row 2" style="text;html=1;strokeColor=none;fillColor=none;spacingLeft=4;spacingRight=4;whiteSpace=wrap;overflow=hidden;rotatable=0;points=[[0,0.5],[1,0.5]];portConstraint=eastwest;" parent="21ea969265ad0168-14" vertex="1">
          <mxGeometry y="52" width="160" height="26" as="geometry" />
        </mxCell>
        <mxCell id="21ea969265ad0168-17" value="Row 3" style="text;html=1;strokeColor=none;fillColor=none;spacingLeft=4;spacingRight=4;whiteSpace=wrap;overflow=hidden;rotatable=0;points=[[0,0.5],[1,0.5]];portConstraint=eastwest;" parent="21ea969265ad0168-14" vertex="1">
          <mxGeometry y="78" width="160" height="26" as="geometry" />
        </mxCell>
        <mxCell id="21ea969265ad0168-18" value="Function" style="swimlane;html=1;fontStyle=0;childLayout=stackLayout;horizontal=1;startSize=26;fillColor=#e0e0e0;horizontalStack=0;resizeParent=1;resizeLast=0;collapsible=1;marginBottom=0;swimlaneFillColor=#ffffff;align=center;rounded=1;shadow=0;comic=0;labelBackgroundColor=none;strokeWidth=1;fontFamily=Verdana;fontSize=12" parent="1" vertex="1">
          <mxGeometry x="160" y="570" width="160" height="140" as="geometry" />
        </mxCell>
        <mxCell id="21ea969265ad0168-19" value="Row 1" style="text;html=1;strokeColor=none;fillColor=none;spacingLeft=4;spacingRight=4;whiteSpace=wrap;overflow=hidden;rotatable=0;points=[[0,0.5],[1,0.5]];portConstraint=eastwest;" parent="21ea969265ad0168-18" vertex="1">
          <mxGeometry y="26" width="160" height="26" as="geometry" />
        </mxCell>
        <mxCell id="21ea969265ad0168-20" value="Row 2" style="text;html=1;strokeColor=none;fillColor=none;spacingLeft=4;spacingRight=4;whiteSpace=wrap;overflow=hidden;rotatable=0;points=[[0,0.5],[1,0.5]];portConstraint=eastwest;" parent="21ea969265ad0168-18" vertex="1">
          <mxGeometry y="52" width="160" height="26" as="geometry" />
        </mxCell>
        <mxCell id="21ea969265ad0168-51" value="Row 3" style="text;html=1;strokeColor=none;fillColor=none;spacingLeft=4;spacingRight=4;whiteSpace=wrap;overflow=hidden;rotatable=0;points=[[0,0.5],[1,0.5]];portConstraint=eastwest;" parent="21ea969265ad0168-18" vertex="1">
          <mxGeometry y="78" width="160" height="26" as="geometry" />
        </mxCell>
        <mxCell id="21ea969265ad0168-21" value="Row 4" style="text;html=1;strokeColor=none;fillColor=none;spacingLeft=4;spacingRight=4;whiteSpace=wrap;overflow=hidden;rotatable=0;points=[[0,0.5],[1,0.5]];portConstraint=eastwest;" parent="21ea969265ad0168-18" vertex="1">
          <mxGeometry y="104" width="160" height="26" as="geometry" />
        </mxCell>
        <mxCell id="21ea969265ad0168-22" value="Function" style="swimlane;html=1;fontStyle=0;childLayout=stackLayout;horizontal=1;startSize=26;fillColor=#e0e0e0;horizontalStack=0;resizeParent=1;resizeLast=0;collapsible=1;marginBottom=0;swimlaneFillColor=#ffffff;align=center;rounded=1;shadow=0;comic=0;labelBackgroundColor=none;strokeWidth=1;fontFamily=Verdana;fontSize=12" parent="1" vertex="1">
          <mxGeometry x="560" y="266" width="160" height="84" as="geometry" />
        </mxCell>
        <mxCell id="21ea969265ad0168-23" value="Row 1" style="text;html=1;strokeColor=none;fillColor=none;spacingLeft=4;spacingRight=4;whiteSpace=wrap;overflow=hidden;rotatable=0;points=[[0,0.5],[1,0.5]];portConstraint=eastwest;" parent="21ea969265ad0168-22" vertex="1">
          <mxGeometry y="26" width="160" height="26" as="geometry" />
        </mxCell>
        <mxCell id="21ea969265ad0168-24" value="Row 2" style="text;html=1;strokeColor=none;fillColor=none;spacingLeft=4;spacingRight=4;whiteSpace=wrap;overflow=hidden;rotatable=0;points=[[0,0.5],[1,0.5]];portConstraint=eastwest;" parent="21ea969265ad0168-22" vertex="1">
          <mxGeometry y="52" width="160" height="26" as="geometry" />
        </mxCell>
        <mxCell id="21ea969265ad0168-26" value="Function" style="swimlane;html=1;fontStyle=0;childLayout=stackLayout;horizontal=1;startSize=26;fillColor=#e0e0e0;horizontalStack=0;resizeParent=1;resizeLast=0;collapsible=1;marginBottom=0;swimlaneFillColor=#ffffff;align=center;rounded=1;shadow=0;comic=0;labelBackgroundColor=none;strokeWidth=1;fontFamily=Verdana;fontSize=12" parent="1" vertex="1">
          <mxGeometry x="560" y="570" width="160" height="110" as="geometry" />
        </mxCell>
        <mxCell id="21ea969265ad0168-27" value="Row 1" style="text;html=1;strokeColor=none;fillColor=none;spacingLeft=4;spacingRight=4;whiteSpace=wrap;overflow=hidden;rotatable=0;points=[[0,0.5],[1,0.5]];portConstraint=eastwest;" parent="21ea969265ad0168-26" vertex="1">
          <mxGeometry y="26" width="160" height="26" as="geometry" />
        </mxCell>
        <mxCell id="21ea969265ad0168-28" value="Row 2" style="text;html=1;strokeColor=none;fillColor=none;spacingLeft=4;spacingRight=4;whiteSpace=wrap;overflow=hidden;rotatable=0;points=[[0,0.5],[1,0.5]];portConstraint=eastwest;" parent="21ea969265ad0168-26" vertex="1">
          <mxGeometry y="52" width="160" height="26" as="geometry" />
        </mxCell>
        <mxCell id="21ea969265ad0168-29" value="Row 3" style="text;html=1;strokeColor=none;fillColor=none;spacingLeft=4;spacingRight=4;whiteSpace=wrap;overflow=hidden;rotatable=0;points=[[0,0.5],[1,0.5]];portConstraint=eastwest;" parent="21ea969265ad0168-26" vertex="1">
          <mxGeometry y="78" width="160" height="26" as="geometry" />
        </mxCell>
        <mxCell id="21ea969265ad0168-30" value="Object" style="html=1;rounded=0;shadow=0;comic=0;labelBackgroundColor=none;strokeWidth=2;fontFamily=Verdana;fontSize=12;align=center;shape=mxgraph.ios7ui.horLines;" parent="1" vertex="1">
          <mxGeometry x="380" y="440" width="135" height="50" as="geometry" />
        </mxCell>
        <mxCell id="21ea969265ad0168-31" style="edgeStyle=none;html=1;labelBackgroundColor=none;startFill=0;startSize=8;endFill=1;endSize=8;fontFamily=Verdana;fontSize=12;" parent="1" source="21ea969265ad0168-18" target="2debaab0fafb2da2-10" edge="1">
          <mxGeometry relative="1" as="geometry" />
        </mxCell>
        <mxCell id="21ea969265ad0168-32" style="edgeStyle=none;html=1;labelBackgroundColor=none;startFill=0;startSize=8;endFill=1;endSize=8;fontFamily=Verdana;fontSize=12;" parent="1" source="2debaab0fafb2da2-10" target="21ea969265ad0168-14" edge="1">
          <mxGeometry relative="1" as="geometry" />
        </mxCell>
        <mxCell id="21ea969265ad0168-33" style="edgeStyle=orthogonalEdgeStyle;html=1;labelBackgroundColor=none;startFill=0;startSize=8;endFill=1;endSize=8;fontFamily=Verdana;fontSize=12;exitX=1;exitY=0.25;entryX=1;entryY=0.5;" parent="1" source="21ea969265ad0168-18" target="21ea969265ad0168-17" edge="1">
          <mxGeometry relative="1" as="geometry">
            <Array as="points">
              <mxPoint x="350" y="605" />
              <mxPoint x="350" y="357" />
            </Array>
          </mxGeometry>
        </mxCell>
        <mxCell id="21ea969265ad0168-34" value="" style="edgeStyle=orthogonalEdgeStyle;html=1;labelBackgroundColor=none;startFill=0;startSize=8;endFill=1;endSize=8;fontFamily=Verdana;fontSize=12;" parent="1" source="21ea969265ad0168-30" target="21ea969265ad0168-27" edge="1">
          <mxGeometry x="-0.1342" y="32" relative="1" as="geometry">
            <mxPoint as="offset" />
          </mxGeometry>
        </mxCell>
        <mxCell id="21ea969265ad0168-35" style="edgeStyle=orthogonalEdgeStyle;html=1;labelBackgroundColor=none;startFill=0;startSize=8;endFill=1;endSize=8;fontFamily=Verdana;fontSize=12;" parent="1" source="21ea969265ad0168-14" target="21ea969265ad0168-30" edge="1">
          <mxGeometry relative="1" as="geometry">
            <Array as="points">
              <mxPoint x="448" y="340" />
            </Array>
          </mxGeometry>
        </mxCell>
        <mxCell id="21ea969265ad0168-36" style="edgeStyle=orthogonalEdgeStyle;html=1;labelBackgroundColor=none;startFill=0;startSize=8;endFill=1;endSize=8;fontFamily=Verdana;fontSize=12;" parent="1" source="21ea969265ad0168-6" target="21ea969265ad0168-14" edge="1">
          <mxGeometry relative="1" as="geometry" />
        </mxCell>
        <mxCell id="21ea969265ad0168-37" style="edgeStyle=orthogonalEdgeStyle;html=1;labelBackgroundColor=none;startFill=0;startSize=8;endFill=1;endSize=8;fontFamily=Verdana;fontSize=12;" parent="1" source="21ea969265ad0168-26" target="21ea969265ad0168-22" edge="1">
          <mxGeometry relative="1" as="geometry" />
        </mxCell>
        <mxCell id="21ea969265ad0168-38" style="edgeStyle=orthogonalEdgeStyle;html=1;labelBackgroundColor=none;startFill=0;startSize=8;endFill=1;endSize=8;fontFamily=Verdana;fontSize=12;" parent="1" source="21ea969265ad0168-10" target="21ea969265ad0168-22" edge="1">
          <mxGeometry relative="1" as="geometry" />
        </mxCell>
        <mxCell id="21ea969265ad0168-39" style="edgeStyle=orthogonalEdgeStyle;html=1;entryX=0;entryY=0.5;labelBackgroundColor=none;startFill=0;startSize=8;endFill=1;endSize=8;fontFamily=Verdana;fontSize=12;exitX=1;exitY=0.5;" parent="1" source="21ea969265ad0168-8" target="21ea969265ad0168-12" edge="1">
          <mxGeometry relative="1" as="geometry">
            <Array as="points" />
          </mxGeometry>
        </mxCell>
        <mxCell id="21ea969265ad0168-40" style="edgeStyle=orthogonalEdgeStyle;html=1;exitX=0;exitY=0.5;entryX=1;entryY=0.5;labelBackgroundColor=none;startFill=0;startSize=8;endFill=1;endSize=8;fontFamily=Verdana;fontSize=12;" parent="1" source="21ea969265ad0168-11" target="21ea969265ad0168-7" edge="1">
          <mxGeometry relative="1" as="geometry" />
        </mxCell>
        <mxCell id="21ea969265ad0168-41" style="edgeStyle=orthogonalEdgeStyle;html=1;exitX=1;exitY=0.5;entryX=0;entryY=0.5;labelBackgroundColor=none;startFill=0;startSize=8;endFill=1;endSize=8;fontFamily=Verdana;fontSize=12;" parent="1" source="21ea969265ad0168-9" target="21ea969265ad0168-23" edge="1">
          <mxGeometry relative="1" as="geometry" />
        </mxCell>
        <mxCell id="21ea969265ad0168-42" style="edgeStyle=orthogonalEdgeStyle;html=1;exitX=1;exitY=0.5;entryX=0;entryY=0.5;labelBackgroundColor=none;startFill=0;startSize=8;endFill=1;endSize=8;fontFamily=Verdana;fontSize=12;" parent="1" source="21ea969265ad0168-16" target="21ea969265ad0168-24" edge="1">
          <mxGeometry relative="1" as="geometry">
            <Array as="points" />
          </mxGeometry>
        </mxCell>
        <mxCell id="21ea969265ad0168-43" style="edgeStyle=orthogonalEdgeStyle;html=1;labelBackgroundColor=none;startFill=0;startSize=8;endFill=1;endSize=8;fontFamily=Verdana;fontSize=12;" parent="1" source="21ea969265ad0168-24" edge="1">
          <mxGeometry relative="1" as="geometry">
            <mxPoint x="880" y="331" as="targetPoint" />
          </mxGeometry>
        </mxCell>
        <mxCell id="21ea969265ad0168-44" style="edgeStyle=orthogonalEdgeStyle;html=1;exitX=1;exitY=0.5;labelBackgroundColor=none;startFill=0;startSize=8;endFill=1;endSize=8;fontFamily=Verdana;fontSize=12;" parent="1" source="21ea969265ad0168-27" edge="1">
          <mxGeometry relative="1" as="geometry">
            <mxPoint x="880" y="609" as="targetPoint" />
          </mxGeometry>
        </mxCell>
        <mxCell id="21ea969265ad0168-45" style="edgeStyle=orthogonalEdgeStyle;html=1;labelBackgroundColor=none;startFill=0;startSize=8;endFill=1;endSize=8;fontFamily=Verdana;fontSize=12;entryX=1;entryY=0.5;" parent="1" target="21ea969265ad0168-28" edge="1">
          <mxGeometry relative="1" as="geometry">
            <mxPoint x="890" y="619" as="targetPoint" />
            <mxPoint x="880" y="635" as="sourcePoint" />
            <Array as="points">
              <mxPoint x="880" y="635" />
            </Array>
          </mxGeometry>
        </mxCell>
        <mxCell id="21ea969265ad0168-46" style="edgeStyle=orthogonalEdgeStyle;html=1;labelBackgroundColor=none;startFill=0;startSize=8;endFill=1;endSize=8;fontFamily=Verdana;fontSize=12;entryX=1;entryY=0.5;" parent="1" target="21ea969265ad0168-29" edge="1">
          <mxGeometry relative="1" as="geometry">
            <mxPoint x="730.1904761904761" y="645.0952380952381" as="targetPoint" />
            <mxPoint x="880" y="661" as="sourcePoint" />
            <Array as="points">
              <mxPoint x="800" y="661" />
              <mxPoint x="800" y="661" />
            </Array>
          </mxGeometry>
        </mxCell>
        <mxCell id="21ea969265ad0168-47" style="edgeStyle=orthogonalEdgeStyle;html=1;exitX=1;exitY=0.5;labelBackgroundColor=none;startFill=0;startSize=8;endFill=1;endSize=8;fontFamily=Verdana;fontSize=12;" parent="1" source="21ea969265ad0168-11" edge="1">
          <mxGeometry relative="1" as="geometry">
            <mxPoint x="880" y="113" as="targetPoint" />
          </mxGeometry>
        </mxCell>
        <mxCell id="21ea969265ad0168-48" style="edgeStyle=orthogonalEdgeStyle;html=1;exitX=1;exitY=0.5;labelBackgroundColor=none;startFill=0;startSize=8;endFill=1;endSize=8;fontFamily=Verdana;fontSize=12;" parent="1" source="21ea969265ad0168-12" edge="1">
          <mxGeometry relative="1" as="geometry">
            <mxPoint x="880" y="139" as="targetPoint" />
          </mxGeometry>
        </mxCell>
        <mxCell id="21ea969265ad0168-49" style="edgeStyle=orthogonalEdgeStyle;html=1;exitX=1;exitY=0.5;labelBackgroundColor=none;startFill=0;startSize=8;endFill=1;endSize=8;fontFamily=Verdana;fontSize=12;" parent="1" source="21ea969265ad0168-52" edge="1">
          <mxGeometry relative="1" as="geometry">
            <mxPoint x="880" y="165" as="targetPoint" />
            <Array as="points" />
          </mxGeometry>
        </mxCell>
        <mxCell id="21ea969265ad0168-50" style="edgeStyle=elbowEdgeStyle;html=1;labelBackgroundColor=none;startFill=0;startSize=8;endFill=1;endSize=8;fontFamily=Verdana;fontSize=12;elbow=vertical;entryX=1.011;entryY=0.152;entryPerimeter=0;" parent="1" target="21ea969265ad0168-10" edge="1">
          <mxGeometry relative="1" as="geometry">
            <mxPoint x="740" y="89" as="targetPoint" />
            <mxPoint x="880" y="94" as="sourcePoint" />
            <Array as="points">
              <mxPoint x="810" y="94" />
            </Array>
          </mxGeometry>
        </mxCell>
        <mxCell id="lr7paG35g0JCsMJMvGpv-1" value="로그인 폼" style="rounded=1;whiteSpace=wrap;html=1;fontSize=12;glass=0;strokeWidth=1;shadow=0;" parent="1" vertex="1">
          <mxGeometry x="1905" y="2230" width="120" height="40" as="geometry" />
        </mxCell>
        <mxCell id="lr7paG35g0JCsMJMvGpv-2" value="Yes" style="rounded=0;html=1;jettySize=auto;orthogonalLoop=1;fontSize=11;endArrow=block;endFill=0;endSize=8;strokeWidth=1;shadow=0;labelBackgroundColor=none;edgeStyle=orthogonalEdgeStyle;" parent="1" edge="1">
          <mxGeometry y="20" relative="1" as="geometry">
            <mxPoint as="offset" />
            <mxPoint x="1964.63" y="2530" as="sourcePoint" />
            <mxPoint x="1964.63" y="2580" as="targetPoint" />
          </mxGeometry>
        </mxCell>
        <mxCell id="lr7paG35g0JCsMJMvGpv-3" value="No" style="edgeStyle=orthogonalEdgeStyle;rounded=0;html=1;jettySize=auto;orthogonalLoop=1;fontSize=11;endArrow=block;endFill=0;endSize=8;strokeWidth=1;shadow=0;labelBackgroundColor=none;" parent="1" edge="1">
          <mxGeometry x="-0.2089" y="10" relative="1" as="geometry">
            <mxPoint as="offset" />
            <mxPoint x="2015" y="2489.63" as="sourcePoint" />
            <mxPoint x="2065" y="2489.667037037037" as="targetPoint" />
            <Array as="points">
              <mxPoint x="2045" y="2489" />
              <mxPoint x="2045" y="2489" />
            </Array>
          </mxGeometry>
        </mxCell>
        <mxCell id="lr7paG35g0JCsMJMvGpv-4" value="아이디 존재" style="rhombus;whiteSpace=wrap;html=1;shadow=0;fontFamily=Helvetica;fontSize=12;align=center;strokeWidth=1;spacing=6;spacingTop=-4;" parent="1" vertex="1">
          <mxGeometry x="1915" y="2450" width="100" height="80" as="geometry" />
        </mxCell>
        <mxCell id="lr7paG35g0JCsMJMvGpv-5" value="ID/PW 입력" style="shape=parallelogram;perimeter=parallelogramPerimeter;whiteSpace=wrap;html=1;fixedSize=1;" parent="1" vertex="1">
          <mxGeometry x="1905" y="2340" width="120" height="60" as="geometry" />
        </mxCell>
        <mxCell id="lr7paG35g0JCsMJMvGpv-6" value="로그인 하신 ID가&lt;br&gt;존재하지 않습니다" style="shape=document;whiteSpace=wrap;html=1;boundedLbl=1;" parent="1" vertex="1">
          <mxGeometry x="2065" y="2460" width="110" height="60" as="geometry" />
        </mxCell>
        <mxCell id="lr7paG35g0JCsMJMvGpv-7" value="사용 유무" style="rhombus;whiteSpace=wrap;html=1;shadow=0;fontFamily=Helvetica;fontSize=12;align=center;strokeWidth=1;spacing=6;spacingTop=-4;" parent="1" vertex="1">
          <mxGeometry x="1915" y="2580" width="100" height="80" as="geometry" />
        </mxCell>
        <mxCell id="lr7paG35g0JCsMJMvGpv-8" value="Yes" style="rounded=0;html=1;jettySize=auto;orthogonalLoop=1;fontSize=11;endArrow=block;endFill=0;endSize=8;strokeWidth=1;shadow=0;labelBackgroundColor=none;edgeStyle=orthogonalEdgeStyle;" parent="1" edge="1">
          <mxGeometry y="20" relative="1" as="geometry">
            <mxPoint as="offset" />
            <mxPoint x="1964.63" y="2660" as="sourcePoint" />
            <mxPoint x="1964.63" y="2710" as="targetPoint" />
          </mxGeometry>
        </mxCell>
        <mxCell id="lr7paG35g0JCsMJMvGpv-9" value="No" style="edgeStyle=orthogonalEdgeStyle;rounded=0;html=1;jettySize=auto;orthogonalLoop=1;fontSize=11;endArrow=block;endFill=0;endSize=8;strokeWidth=1;shadow=0;labelBackgroundColor=none;" parent="1" edge="1">
          <mxGeometry x="-0.2089" y="10" relative="1" as="geometry">
            <mxPoint as="offset" />
            <mxPoint x="2015" y="2619.63" as="sourcePoint" />
            <mxPoint x="2065" y="2619.667037037037" as="targetPoint" />
            <Array as="points">
              <mxPoint x="2045" y="2620" />
              <mxPoint x="2045" y="2620" />
            </Array>
          </mxGeometry>
        </mxCell>
        <mxCell id="lr7paG35g0JCsMJMvGpv-10" value="잠금 상태인&lt;br&gt;ID입니다" style="shape=document;whiteSpace=wrap;html=1;boundedLbl=1;" parent="1" vertex="1">
          <mxGeometry x="2065" y="2590" width="110" height="60" as="geometry" />
        </mxCell>
        <mxCell id="lr7paG35g0JCsMJMvGpv-11" value="비밀번호&lt;br&gt;사용 기간&lt;br&gt;검사" style="rhombus;whiteSpace=wrap;html=1;shadow=0;fontFamily=Helvetica;fontSize=12;align=center;strokeWidth=1;spacing=6;spacingTop=-4;" parent="1" vertex="1">
          <mxGeometry x="1910" y="2710" width="110" height="80" as="geometry" />
        </mxCell>
        <mxCell id="lr7paG35g0JCsMJMvGpv-12" value="No" style="edgeStyle=orthogonalEdgeStyle;rounded=0;html=1;jettySize=auto;orthogonalLoop=1;fontSize=11;endArrow=block;endFill=0;endSize=8;strokeWidth=1;shadow=0;labelBackgroundColor=none;" parent="1" edge="1">
          <mxGeometry x="-0.2089" y="10" relative="1" as="geometry">
            <mxPoint as="offset" />
            <mxPoint x="2020" y="2749.7200000000003" as="sourcePoint" />
            <mxPoint x="2070" y="2749.7570370370368" as="targetPoint" />
            <Array as="points">
              <mxPoint x="2045" y="2750" />
              <mxPoint x="2045" y="2750" />
            </Array>
          </mxGeometry>
        </mxCell>
        <mxCell id="lr7paG35g0JCsMJMvGpv-13" value="비밀번호 유효기간이 경과하였습니다" style="shape=document;whiteSpace=wrap;html=1;boundedLbl=1;" parent="1" vertex="1">
          <mxGeometry x="2069" y="2720" width="110" height="60" as="geometry" />
        </mxCell>
        <mxCell id="lr7paG35g0JCsMJMvGpv-14" value="Yes" style="rounded=0;html=1;jettySize=auto;orthogonalLoop=1;fontSize=11;endArrow=block;endFill=0;endSize=8;strokeWidth=1;shadow=0;labelBackgroundColor=none;edgeStyle=orthogonalEdgeStyle;" parent="1" edge="1">
          <mxGeometry y="20" relative="1" as="geometry">
            <mxPoint as="offset" />
            <mxPoint x="1964.6599999999999" y="2790" as="sourcePoint" />
            <mxPoint x="1964.6599999999999" y="2840" as="targetPoint" />
          </mxGeometry>
        </mxCell>
        <mxCell id="lr7paG35g0JCsMJMvGpv-15" value="로그인 횟수&lt;br&gt;5회 이상" style="rhombus;whiteSpace=wrap;html=1;shadow=0;fontFamily=Helvetica;fontSize=12;align=center;strokeWidth=1;spacing=6;spacingTop=-4;" parent="1" vertex="1">
          <mxGeometry x="1907" y="2839" width="115" height="80" as="geometry" />
        </mxCell>
        <mxCell id="lr7paG35g0JCsMJMvGpv-16" value="로그인 횟수를&lt;br&gt;초과하였습니다" style="shape=document;whiteSpace=wrap;html=1;boundedLbl=1;" parent="1" vertex="1">
          <mxGeometry x="2072" y="2849" width="110" height="60" as="geometry" />
        </mxCell>
        <mxCell id="lr7paG35g0JCsMJMvGpv-17" value="YES" style="edgeStyle=orthogonalEdgeStyle;rounded=0;html=1;jettySize=auto;orthogonalLoop=1;fontSize=11;endArrow=block;endFill=0;endSize=8;strokeWidth=1;shadow=0;labelBackgroundColor=none;" parent="1" edge="1">
          <mxGeometry x="-0.2014" y="10" relative="1" as="geometry">
            <mxPoint as="offset" />
            <mxPoint x="2022" y="2878.7200000000003" as="sourcePoint" />
            <mxPoint x="2072" y="2878.7570370370368" as="targetPoint" />
            <Array as="points">
              <mxPoint x="2047" y="2879" />
              <mxPoint x="2047" y="2879" />
            </Array>
          </mxGeometry>
        </mxCell>
        <mxCell id="lr7paG35g0JCsMJMvGpv-18" value="NO" style="rounded=0;html=1;jettySize=auto;orthogonalLoop=1;fontSize=11;endArrow=block;endFill=0;endSize=8;strokeWidth=1;shadow=0;labelBackgroundColor=none;edgeStyle=orthogonalEdgeStyle;" parent="1" edge="1">
          <mxGeometry y="20" relative="1" as="geometry">
            <mxPoint as="offset" />
            <mxPoint x="1964.6599999999999" y="2919" as="sourcePoint" />
            <mxPoint x="1964.6599999999999" y="2969" as="targetPoint" />
          </mxGeometry>
        </mxCell>
        <mxCell id="lr7paG35g0JCsMJMvGpv-19" value="비밀번호&lt;br&gt;검사" style="rhombus;whiteSpace=wrap;html=1;shadow=0;fontFamily=Helvetica;fontSize=12;align=center;strokeWidth=1;spacing=6;spacingTop=-4;" parent="1" vertex="1">
          <mxGeometry x="1914.5" y="2968" width="100" height="80" as="geometry" />
        </mxCell>
        <mxCell id="lr7paG35g0JCsMJMvGpv-20" value="YES" style="rounded=0;html=1;jettySize=auto;orthogonalLoop=1;fontSize=11;endArrow=block;endFill=0;endSize=8;strokeWidth=1;shadow=0;labelBackgroundColor=none;edgeStyle=orthogonalEdgeStyle;" parent="1" edge="1">
          <mxGeometry y="20" relative="1" as="geometry">
            <mxPoint as="offset" />
            <mxPoint x="1964.6599999999999" y="3048" as="sourcePoint" />
            <mxPoint x="1964.6599999999999" y="3098" as="targetPoint" />
          </mxGeometry>
        </mxCell>
        <mxCell id="lr7paG35g0JCsMJMvGpv-21" value="No" style="edgeStyle=orthogonalEdgeStyle;rounded=0;html=1;jettySize=auto;orthogonalLoop=1;fontSize=11;endArrow=block;endFill=0;endSize=8;strokeWidth=1;shadow=0;labelBackgroundColor=none;" parent="1" edge="1">
          <mxGeometry x="-0.2089" y="10" relative="1" as="geometry">
            <mxPoint as="offset" />
            <mxPoint x="2014" y="3007.7200000000003" as="sourcePoint" />
            <mxPoint x="2064" y="3007.7570370370368" as="targetPoint" />
            <Array as="points">
              <mxPoint x="2035" y="3008" />
              <mxPoint x="2035" y="3008" />
            </Array>
          </mxGeometry>
        </mxCell>
        <mxCell id="lr7paG35g0JCsMJMvGpv-22" value="비밀번호가 일치하지 않습니다.&lt;br&gt;N+1회 오류!!" style="shape=document;whiteSpace=wrap;html=1;boundedLbl=1;" parent="1" vertex="1">
          <mxGeometry x="2064" y="2978" width="120" height="72" as="geometry" />
        </mxCell>
        <mxCell id="lr7paG35g0JCsMJMvGpv-23" value="" style="edgeStyle=orthogonalEdgeStyle;rounded=0;html=1;jettySize=auto;orthogonalLoop=1;fontSize=11;endArrow=block;endFill=0;endSize=8;strokeWidth=1;shadow=0;labelBackgroundColor=none;" parent="1" edge="1">
          <mxGeometry x="-0.2089" y="10" relative="1" as="geometry">
            <mxPoint as="offset" />
            <mxPoint x="2185" y="3009.7200000000003" as="sourcePoint" />
            <mxPoint x="2235" y="3009.7570370370368" as="targetPoint" />
          </mxGeometry>
        </mxCell>
        <mxCell id="lr7paG35g0JCsMJMvGpv-24" value="로그인 횟수&lt;br&gt;5회 이상" style="rhombus;whiteSpace=wrap;html=1;shadow=0;fontFamily=Helvetica;fontSize=12;align=center;strokeWidth=1;spacing=6;spacingTop=-4;" parent="1" vertex="1">
          <mxGeometry x="2235" y="2970" width="115" height="80" as="geometry" />
        </mxCell>
        <mxCell id="lr7paG35g0JCsMJMvGpv-25" value="YES" style="rounded=0;html=1;jettySize=auto;orthogonalLoop=1;fontSize=11;endArrow=block;endFill=0;endSize=8;strokeWidth=1;shadow=0;labelBackgroundColor=none;edgeStyle=orthogonalEdgeStyle;entryX=0.5;entryY=1;entryDx=0;entryDy=0;" parent="1" target="lr7paG35g0JCsMJMvGpv-26" edge="1">
          <mxGeometry y="20" relative="1" as="geometry">
            <mxPoint as="offset" />
            <mxPoint x="2349.66" y="3010" as="sourcePoint" />
            <mxPoint x="2384" y="2871" as="targetPoint" />
            <Array as="points">
              <mxPoint x="2380" y="3010" />
            </Array>
          </mxGeometry>
        </mxCell>
        <mxCell id="lr7paG35g0JCsMJMvGpv-26" value="계정 잠금" style="rounded=0;whiteSpace=wrap;html=1;" parent="1" vertex="1">
          <mxGeometry x="2320" y="2630" width="120" height="60" as="geometry" />
        </mxCell>
        <mxCell id="lr7paG35g0JCsMJMvGpv-27" value="" style="rounded=0;html=1;jettySize=auto;orthogonalLoop=1;fontSize=11;endArrow=block;endFill=0;endSize=8;strokeWidth=1;shadow=0;labelBackgroundColor=none;edgeStyle=orthogonalEdgeStyle;exitX=0.5;exitY=0;exitDx=0;exitDy=0;" parent="1" source="lr7paG35g0JCsMJMvGpv-26" edge="1">
          <mxGeometry y="20" relative="1" as="geometry">
            <mxPoint as="offset" />
            <mxPoint x="2380" y="2811" as="sourcePoint" />
            <mxPoint x="1965" y="2310" as="targetPoint" />
            <Array as="points">
              <mxPoint x="2380" y="2310" />
            </Array>
          </mxGeometry>
        </mxCell>
        <mxCell id="lr7paG35g0JCsMJMvGpv-28" value="로그인 처리&lt;br&gt;로그인 정보 이력 기록" style="rounded=0;whiteSpace=wrap;html=1;" parent="1" vertex="1">
          <mxGeometry x="1900" y="3098" width="130" height="52" as="geometry" />
        </mxCell>
        <mxCell id="lr7paG35g0JCsMJMvGpv-29" value="" style="rounded=0;html=1;jettySize=auto;orthogonalLoop=1;fontSize=11;endArrow=block;endFill=0;endSize=8;strokeWidth=1;shadow=0;labelBackgroundColor=none;edgeStyle=orthogonalEdgeStyle;" parent="1" edge="1">
          <mxGeometry y="20" relative="1" as="geometry">
            <mxPoint as="offset" />
            <mxPoint x="1964" y="3150" as="sourcePoint" />
            <mxPoint x="1964" y="3200" as="targetPoint" />
            <Array as="points">
              <mxPoint x="1964" y="3180" />
              <mxPoint x="1964" y="3180" />
            </Array>
          </mxGeometry>
        </mxCell>
        <mxCell id="lr7paG35g0JCsMJMvGpv-53" value="" style="edgeStyle=orthogonalEdgeStyle;rounded=0;orthogonalLoop=1;jettySize=auto;html=1;" parent="1" source="lr7paG35g0JCsMJMvGpv-30" target="lr7paG35g0JCsMJMvGpv-28" edge="1">
          <mxGeometry relative="1" as="geometry" />
        </mxCell>
        <mxCell id="lr7paG35g0JCsMJMvGpv-30" value="메인 메뉴 폼" style="rounded=1;whiteSpace=wrap;html=1;fontSize=12;glass=0;strokeWidth=1;shadow=0;" parent="1" vertex="1">
          <mxGeometry x="1904.5" y="3200" width="120" height="40" as="geometry" />
        </mxCell>
        <mxCell id="lr7paG35g0JCsMJMvGpv-31" value="" style="rounded=0;html=1;jettySize=auto;orthogonalLoop=1;fontSize=11;endArrow=block;endFill=0;endSize=8;strokeWidth=1;shadow=0;labelBackgroundColor=none;edgeStyle=orthogonalEdgeStyle;entryX=0.5;entryY=0;entryDx=0;entryDy=0;" parent="1" target="lr7paG35g0JCsMJMvGpv-5" edge="1">
          <mxGeometry y="20" relative="1" as="geometry">
            <mxPoint as="offset" />
            <mxPoint x="1964.5" y="2270" as="sourcePoint" />
            <mxPoint x="1964.5" y="2320" as="targetPoint" />
          </mxGeometry>
        </mxCell>
        <mxCell id="lr7paG35g0JCsMJMvGpv-32" value="" style="rounded=0;html=1;jettySize=auto;orthogonalLoop=1;fontSize=11;endArrow=block;endFill=0;endSize=8;strokeWidth=1;shadow=0;labelBackgroundColor=none;edgeStyle=orthogonalEdgeStyle;" parent="1" edge="1">
          <mxGeometry y="20" relative="1" as="geometry">
            <mxPoint as="offset" />
            <mxPoint x="1964.8000000000002" y="2400" as="sourcePoint" />
            <mxPoint x="1964.8000000000002" y="2450" as="targetPoint" />
          </mxGeometry>
        </mxCell>
        <mxCell id="lr7paG35g0JCsMJMvGpv-33" value="" style="endArrow=none;html=1;rounded=0;exitX=0.998;exitY=0.404;exitDx=0;exitDy=0;exitPerimeter=0;" parent="1" source="lr7paG35g0JCsMJMvGpv-6" edge="1">
          <mxGeometry width="50" height="50" relative="1" as="geometry">
            <mxPoint x="2176" y="2485" as="sourcePoint" />
            <mxPoint x="2246" y="2485" as="targetPoint" />
          </mxGeometry>
        </mxCell>
        <mxCell id="lr7paG35g0JCsMJMvGpv-34" value="" style="endArrow=none;html=1;rounded=0;exitX=0.998;exitY=0.404;exitDx=0;exitDy=0;exitPerimeter=0;" parent="1" edge="1">
          <mxGeometry width="50" height="50" relative="1" as="geometry">
            <mxPoint x="2175" y="2612" as="sourcePoint" />
            <mxPoint x="2246" y="2613" as="targetPoint" />
          </mxGeometry>
        </mxCell>
        <mxCell id="lr7paG35g0JCsMJMvGpv-35" value="" style="endArrow=none;html=1;rounded=0;exitX=0.995;exitY=0.336;exitDx=0;exitDy=0;exitPerimeter=0;" parent="1" source="lr7paG35g0JCsMJMvGpv-13" edge="1">
          <mxGeometry width="50" height="50" relative="1" as="geometry">
            <mxPoint x="2180" y="2740" as="sourcePoint" />
            <mxPoint x="2246" y="2741" as="targetPoint" />
          </mxGeometry>
        </mxCell>
        <mxCell id="lr7paG35g0JCsMJMvGpv-36" value="" style="endArrow=none;html=1;rounded=0;exitX=0.5;exitY=0;exitDx=0;exitDy=0;" parent="1" source="lr7paG35g0JCsMJMvGpv-24" edge="1">
          <mxGeometry width="50" height="50" relative="1" as="geometry">
            <mxPoint x="2295" y="2970" as="sourcePoint" />
            <mxPoint x="2293" y="2310" as="targetPoint" />
          </mxGeometry>
        </mxCell>
        <mxCell id="lr7paG35g0JCsMJMvGpv-37" value="" style="endArrow=none;html=1;rounded=0;exitX=1.003;exitY=0.44;exitDx=0;exitDy=0;exitPerimeter=0;" parent="1" source="lr7paG35g0JCsMJMvGpv-16" edge="1">
          <mxGeometry width="50" height="50" relative="1" as="geometry">
            <mxPoint x="2185" y="2875" as="sourcePoint" />
            <mxPoint x="2246" y="2310" as="targetPoint" />
            <Array as="points">
              <mxPoint x="2246" y="2875" />
            </Array>
          </mxGeometry>
        </mxCell>
        <mxCell id="lr7paG35g0JCsMJMvGpv-38" value="사용자 추가 폼" style="rounded=1;whiteSpace=wrap;html=1;fontSize=12;glass=0;strokeWidth=1;shadow=0;" parent="1" vertex="1">
          <mxGeometry x="2635" y="2290" width="170" height="60" as="geometry" />
        </mxCell>
        <mxCell id="lr7paG35g0JCsMJMvGpv-39" value="" style="rounded=0;html=1;jettySize=auto;orthogonalLoop=1;fontSize=11;endArrow=block;endFill=0;endSize=8;strokeWidth=1;shadow=0;labelBackgroundColor=none;edgeStyle=orthogonalEdgeStyle;exitX=0.5;exitY=1;exitDx=0;exitDy=0;entryX=0.5;entryY=0;entryDx=0;entryDy=0;" parent="1" target="lr7paG35g0JCsMJMvGpv-41" edge="1">
          <mxGeometry y="20" relative="1" as="geometry">
            <mxPoint as="offset" />
            <mxPoint x="2719.87" y="2600" as="sourcePoint" />
            <mxPoint x="2719.5" y="2670" as="targetPoint" />
            <Array as="points" />
          </mxGeometry>
        </mxCell>
        <mxCell id="lr7paG35g0JCsMJMvGpv-40" value="NME / USER_ID / PWD / ROL_NME&lt;br&gt;입력" style="shape=parallelogram;perimeter=parallelogramPerimeter;whiteSpace=wrap;html=1;fixedSize=1;" parent="1" vertex="1">
          <mxGeometry x="2570" y="2430" width="300" height="60" as="geometry" />
        </mxCell>
        <mxCell id="lr7paG35g0JCsMJMvGpv-41" value="아이디 중복 유무" style="rhombus;whiteSpace=wrap;html=1;shadow=0;fontFamily=Helvetica;fontSize=12;align=center;strokeWidth=1;spacing=6;spacingTop=-4;" parent="1" vertex="1">
          <mxGeometry x="2655" y="2710" width="130" height="100" as="geometry" />
        </mxCell>
        <mxCell id="lr7paG35g0JCsMJMvGpv-42" value="Yes" style="edgeStyle=orthogonalEdgeStyle;rounded=0;html=1;jettySize=auto;orthogonalLoop=1;fontSize=11;endArrow=block;endFill=0;endSize=8;strokeWidth=1;shadow=0;labelBackgroundColor=none;entryX=0;entryY=0.5;entryDx=0;entryDy=0;" parent="1" target="lr7paG35g0JCsMJMvGpv-43" edge="1">
          <mxGeometry x="-0.2089" y="10" relative="1" as="geometry">
            <mxPoint as="offset" />
            <mxPoint x="2785.5" y="2760.0299999999997" as="sourcePoint" />
            <mxPoint x="2835.5" y="2760.067037037037" as="targetPoint" />
            <Array as="points" />
          </mxGeometry>
        </mxCell>
        <mxCell id="lr7paG35g0JCsMJMvGpv-43" value="이미 존재하는 ID입니다" style="shape=document;whiteSpace=wrap;html=1;boundedLbl=1;" parent="1" vertex="1">
          <mxGeometry x="2870" y="2730" width="110" height="60" as="geometry" />
        </mxCell>
        <mxCell id="lr7paG35g0JCsMJMvGpv-44" value="" style="rounded=0;html=1;jettySize=auto;orthogonalLoop=1;fontSize=11;endArrow=block;endFill=0;endSize=8;strokeWidth=1;shadow=0;labelBackgroundColor=none;edgeStyle=orthogonalEdgeStyle;entryX=1;entryY=0.5;entryDx=0;entryDy=0;" parent="1" target="lr7paG35g0JCsMJMvGpv-38" edge="1">
          <mxGeometry y="20" relative="1" as="geometry">
            <mxPoint as="offset" />
            <mxPoint x="2980" y="2760" as="sourcePoint" />
            <mxPoint x="3010.34" y="2440" as="targetPoint" />
            <Array as="points">
              <mxPoint x="3060.5" y="2760" />
              <mxPoint x="3060.5" y="2320" />
            </Array>
          </mxGeometry>
        </mxCell>
        <mxCell id="lr7paG35g0JCsMJMvGpv-45" value="사용자 생성 정보 추가" style="rounded=0;whiteSpace=wrap;html=1;" parent="1" vertex="1">
          <mxGeometry x="2655.5" y="2890" width="130" height="60" as="geometry" />
        </mxCell>
        <mxCell id="lr7paG35g0JCsMJMvGpv-46" value="" style="rounded=0;html=1;jettySize=auto;orthogonalLoop=1;fontSize=11;endArrow=block;endFill=0;endSize=8;strokeWidth=1;shadow=0;labelBackgroundColor=none;edgeStyle=orthogonalEdgeStyle;entryX=0.5;entryY=0;entryDx=0;entryDy=0;exitX=0.5;exitY=1;exitDx=0;exitDy=0;" parent="1" source="lr7paG35g0JCsMJMvGpv-38" target="lr7paG35g0JCsMJMvGpv-40" edge="1">
          <mxGeometry y="20" relative="1" as="geometry">
            <mxPoint as="offset" />
            <mxPoint x="2720" y="2350" as="sourcePoint" />
            <mxPoint x="2720" y="2400" as="targetPoint" />
          </mxGeometry>
        </mxCell>
        <mxCell id="lr7paG35g0JCsMJMvGpv-47" value="" style="rounded=0;html=1;jettySize=auto;orthogonalLoop=1;fontSize=11;endArrow=block;endFill=0;endSize=8;strokeWidth=1;shadow=0;labelBackgroundColor=none;edgeStyle=orthogonalEdgeStyle;entryX=0.5;entryY=0;entryDx=0;entryDy=0;exitX=0.5;exitY=1;exitDx=0;exitDy=0;" parent="1" source="lr7paG35g0JCsMJMvGpv-40" target="lr7paG35g0JCsMJMvGpv-48" edge="1">
          <mxGeometry y="20" relative="1" as="geometry">
            <mxPoint as="offset" />
            <mxPoint x="2720.5" y="2490" as="sourcePoint" />
            <mxPoint x="2720.3" y="2530" as="targetPoint" />
            <Array as="points" />
          </mxGeometry>
        </mxCell>
        <mxCell id="lr7paG35g0JCsMJMvGpv-48" value="ROL_NME(권한 이름)으로 &lt;br&gt;ID_T_ROLE 가져오기" style="rounded=0;whiteSpace=wrap;html=1;" parent="1" vertex="1">
          <mxGeometry x="2590" y="2570" width="260" height="60" as="geometry" />
        </mxCell>
        <mxCell id="lr7paG35g0JCsMJMvGpv-49" value="" style="rounded=0;html=1;jettySize=auto;orthogonalLoop=1;fontSize=11;endArrow=block;endFill=0;endSize=8;strokeWidth=1;shadow=0;labelBackgroundColor=none;edgeStyle=orthogonalEdgeStyle;exitX=0.5;exitY=1;exitDx=0;exitDy=0;entryX=0.5;entryY=0;entryDx=0;entryDy=0;" parent="1" edge="1">
          <mxGeometry y="20" relative="1" as="geometry">
            <mxPoint as="offset" />
            <mxPoint x="2720.37" y="2810" as="sourcePoint" />
            <mxPoint x="2720" y="2890" as="targetPoint" />
            <Array as="points">
              <mxPoint x="2720.5" y="2850" />
              <mxPoint x="2720.5" y="2850" />
            </Array>
          </mxGeometry>
        </mxCell>
        <mxCell id="lr7paG35g0JCsMJMvGpv-50" value="No&lt;br&gt;" style="edgeLabel;html=1;align=center;verticalAlign=middle;resizable=0;points=[];" parent="lr7paG35g0JCsMJMvGpv-49" vertex="1" connectable="0">
          <mxGeometry x="-0.0915" y="-3" relative="1" as="geometry">
            <mxPoint x="-17" as="offset" />
          </mxGeometry>
        </mxCell>
        <mxCell id="lr7paG35g0JCsMJMvGpv-51" value="" style="rounded=0;html=1;jettySize=auto;orthogonalLoop=1;fontSize=11;endArrow=block;endFill=0;endSize=8;strokeWidth=1;shadow=0;labelBackgroundColor=none;edgeStyle=orthogonalEdgeStyle;exitX=0.5;exitY=1;exitDx=0;exitDy=0;entryX=0.5;entryY=0;entryDx=0;entryDy=0;" parent="1" edge="1">
          <mxGeometry y="20" relative="1" as="geometry">
            <mxPoint as="offset" />
            <mxPoint x="2720" y="2950" as="sourcePoint" />
            <mxPoint x="2720.13" y="3030" as="targetPoint" />
            <Array as="points">
              <mxPoint x="2720.13" y="2990" />
              <mxPoint x="2720.13" y="2990" />
            </Array>
          </mxGeometry>
        </mxCell>
        <mxCell id="lr7paG35g0JCsMJMvGpv-52" value="사용자 테이블&amp;nbsp;&lt;br&gt;갱신 완료" style="rounded=1;whiteSpace=wrap;html=1;fontSize=12;glass=0;strokeWidth=1;shadow=0;" parent="1" vertex="1">
          <mxGeometry x="2635.5" y="3030" width="170" height="60" as="geometry" />
        </mxCell>
        <mxCell id="lr7paG35g0JCsMJMvGpv-94" value="" style="edgeStyle=orthogonalEdgeStyle;rounded=0;orthogonalLoop=1;jettySize=auto;html=1;" parent="1" source="lr7paG35g0JCsMJMvGpv-54" target="lr7paG35g0JCsMJMvGpv-93" edge="1">
          <mxGeometry relative="1" as="geometry" />
        </mxCell>
        <mxCell id="lr7paG35g0JCsMJMvGpv-54" value="사용자 테이블 수정" style="whiteSpace=wrap;html=1;rounded=1;glass=0;strokeWidth=1;shadow=0;" parent="1" vertex="1">
          <mxGeometry x="3300" y="3040" width="155.5" height="60" as="geometry" />
        </mxCell>
        <mxCell id="lr7paG35g0JCsMJMvGpv-61" value="NO" style="edgeStyle=orthogonalEdgeStyle;rounded=0;orthogonalLoop=1;jettySize=auto;html=1;" parent="1" source="lr7paG35g0JCsMJMvGpv-58" target="lr7paG35g0JCsMJMvGpv-60" edge="1">
          <mxGeometry relative="1" as="geometry" />
        </mxCell>
        <mxCell id="lr7paG35g0JCsMJMvGpv-63" value="YES" style="edgeStyle=orthogonalEdgeStyle;rounded=0;orthogonalLoop=1;jettySize=auto;html=1;" parent="1" source="lr7paG35g0JCsMJMvGpv-58" target="lr7paG35g0JCsMJMvGpv-62" edge="1">
          <mxGeometry relative="1" as="geometry" />
        </mxCell>
        <mxCell id="lr7paG35g0JCsMJMvGpv-58" value="필수값 &lt;br&gt;검사" style="rhombus;whiteSpace=wrap;html=1;rounded=1;glass=0;strokeWidth=1;shadow=0;" parent="1" vertex="1">
          <mxGeometry x="3324.1299999999997" y="3500" width="102.25" height="80" as="geometry" />
        </mxCell>
        <mxCell id="lr7paG35g0JCsMJMvGpv-60" value="유효한 값이 입력되지 않았습니다.&amp;nbsp;" style="shape=document;whiteSpace=wrap;html=1;boundedLbl=1;rounded=1;glass=0;strokeWidth=1;shadow=0;" parent="1" vertex="1">
          <mxGeometry x="3510.1299999999997" y="3510" width="187.75" height="60" as="geometry" />
        </mxCell>
        <mxCell id="lr7paG35g0JCsMJMvGpv-65" value="YES" style="edgeStyle=orthogonalEdgeStyle;rounded=0;orthogonalLoop=1;jettySize=auto;html=1;" parent="1" source="lr7paG35g0JCsMJMvGpv-62" target="lr7paG35g0JCsMJMvGpv-64" edge="1">
          <mxGeometry relative="1" as="geometry" />
        </mxCell>
        <mxCell id="lr7paG35g0JCsMJMvGpv-81" value="NO" style="edgeStyle=orthogonalEdgeStyle;rounded=0;orthogonalLoop=1;jettySize=auto;html=1;" parent="1" source="lr7paG35g0JCsMJMvGpv-62" target="lr7paG35g0JCsMJMvGpv-80" edge="1">
          <mxGeometry relative="1" as="geometry" />
        </mxCell>
        <mxCell id="lr7paG35g0JCsMJMvGpv-62" value="사용자 ID&lt;br&gt;중복 검사" style="rhombus;whiteSpace=wrap;html=1;rounded=1;glass=0;strokeWidth=1;shadow=0;" parent="1" vertex="1">
          <mxGeometry x="3327.8799999999997" y="3660" width="92.25" height="80" as="geometry" />
        </mxCell>
        <mxCell id="lr7paG35g0JCsMJMvGpv-64" value="이미 사용 중인 ID입니다.&amp;nbsp;" style="shape=document;whiteSpace=wrap;html=1;boundedLbl=1;rounded=1;glass=0;strokeWidth=1;shadow=0;" parent="1" vertex="1">
          <mxGeometry x="3510.1299999999997" y="3675" width="187.75" height="50" as="geometry" />
        </mxCell>
        <mxCell id="lr7paG35g0JCsMJMvGpv-68" style="edgeStyle=orthogonalEdgeStyle;rounded=0;orthogonalLoop=1;jettySize=auto;html=1;" parent="1" edge="1">
          <mxGeometry relative="1" as="geometry">
            <mxPoint x="3760" y="4020" as="sourcePoint" />
            <mxPoint x="3455.62" y="3070" as="targetPoint" />
            <Array as="points">
              <mxPoint x="3756.62" y="3073" />
              <mxPoint x="3455.62" y="3073" />
            </Array>
          </mxGeometry>
        </mxCell>
        <mxCell id="lr7paG35g0JCsMJMvGpv-75" value="" style="endArrow=none;html=1;rounded=0;" parent="1" edge="1">
          <mxGeometry width="50" height="50" relative="1" as="geometry">
            <mxPoint x="3707.74" y="3363" as="sourcePoint" />
            <mxPoint x="3757.74" y="3363" as="targetPoint" />
          </mxGeometry>
        </mxCell>
        <mxCell id="lr7paG35g0JCsMJMvGpv-76" value="" style="endArrow=none;html=1;rounded=0;" parent="1" edge="1">
          <mxGeometry width="50" height="50" relative="1" as="geometry">
            <mxPoint x="3706.74" y="3531" as="sourcePoint" />
            <mxPoint x="3756.74" y="3531" as="targetPoint" />
          </mxGeometry>
        </mxCell>
        <mxCell id="lr7paG35g0JCsMJMvGpv-86" value="YES" style="edgeStyle=orthogonalEdgeStyle;rounded=0;orthogonalLoop=1;jettySize=auto;html=1;" parent="1" source="lr7paG35g0JCsMJMvGpv-80" target="lr7paG35g0JCsMJMvGpv-85" edge="1">
          <mxGeometry relative="1" as="geometry" />
        </mxCell>
        <mxCell id="lr7paG35g0JCsMJMvGpv-80" value="비밀번호 유효성&lt;br&gt;검사" style="rhombus;whiteSpace=wrap;html=1;rounded=1;glass=0;strokeWidth=1;shadow=0;" parent="1" vertex="1">
          <mxGeometry x="3327.8799999999997" y="3820" width="92.25" height="80" as="geometry" />
        </mxCell>
        <mxCell id="lr7paG35g0JCsMJMvGpv-82" value="NO" style="edgeStyle=orthogonalEdgeStyle;rounded=0;orthogonalLoop=1;jettySize=auto;html=1;exitX=1;exitY=0.5;exitDx=0;exitDy=0;" parent="1" source="lr7paG35g0JCsMJMvGpv-80" target="lr7paG35g0JCsMJMvGpv-83" edge="1">
          <mxGeometry relative="1" as="geometry">
            <mxPoint x="3420.1299999999997" y="3865" as="sourcePoint" />
          </mxGeometry>
        </mxCell>
        <mxCell id="lr7paG35g0JCsMJMvGpv-83" value="영문과 숫자를 최소 1개씩 포함하여 7자리 이상의 암호로 변경합니다." style="shape=document;whiteSpace=wrap;html=1;boundedLbl=1;rounded=1;glass=0;strokeWidth=1;shadow=0;" parent="1" vertex="1">
          <mxGeometry x="3500.1299999999997" y="3823" width="207.75" height="74" as="geometry" />
        </mxCell>
        <mxCell id="lr7paG35g0JCsMJMvGpv-84" value="" style="endArrow=none;html=1;rounded=0;" parent="1" edge="1">
          <mxGeometry width="50" height="50" relative="1" as="geometry">
            <mxPoint x="3717.74" y="3685" as="sourcePoint" />
            <mxPoint x="3755.74" y="3685" as="targetPoint" />
          </mxGeometry>
        </mxCell>
        <mxCell id="lr7paG35g0JCsMJMvGpv-89" value="YES" style="edgeStyle=orthogonalEdgeStyle;rounded=0;orthogonalLoop=1;jettySize=auto;html=1;" parent="1" source="lr7paG35g0JCsMJMvGpv-85" target="lr7paG35g0JCsMJMvGpv-87" edge="1">
          <mxGeometry relative="1" as="geometry" />
        </mxCell>
        <mxCell id="lr7paG35g0JCsMJMvGpv-92" value="NO" style="edgeStyle=orthogonalEdgeStyle;rounded=0;orthogonalLoop=1;jettySize=auto;html=1;" parent="1" source="lr7paG35g0JCsMJMvGpv-85" target="lr7paG35g0JCsMJMvGpv-91" edge="1">
          <mxGeometry relative="1" as="geometry" />
        </mxCell>
        <mxCell id="lr7paG35g0JCsMJMvGpv-85" value="상위 권한 요청" style="rhombus;whiteSpace=wrap;html=1;rounded=1;glass=0;strokeWidth=1;shadow=0;" parent="1" vertex="1">
          <mxGeometry x="3327.8799999999997" y="3980" width="92.25" height="80" as="geometry" />
        </mxCell>
        <mxCell id="lr7paG35g0JCsMJMvGpv-87" value="제한된 권한을 요청하였습니다." style="shape=document;whiteSpace=wrap;html=1;boundedLbl=1;rounded=1;glass=0;strokeWidth=1;shadow=0;" parent="1" vertex="1">
          <mxGeometry x="3510.1299999999997" y="3995" width="187.75" height="50" as="geometry" />
        </mxCell>
        <mxCell id="lr7paG35g0JCsMJMvGpv-88" value="" style="endArrow=none;html=1;rounded=0;" parent="1" edge="1">
          <mxGeometry width="50" height="50" relative="1" as="geometry">
            <mxPoint x="3707.74" y="3848" as="sourcePoint" />
            <mxPoint x="3757.74" y="3848" as="targetPoint" />
          </mxGeometry>
        </mxCell>
        <mxCell id="lr7paG35g0JCsMJMvGpv-91" value="사용자 테이블 갱신" style="rounded=1;whiteSpace=wrap;html=1;glass=0;strokeWidth=1;shadow=0;" parent="1" vertex="1">
          <mxGeometry x="3314.0049999999997" y="4150" width="120" height="60" as="geometry" />
        </mxCell>
        <mxCell id="hNo4_uOky3ZNRl5Zc9Kb-2" value="" style="edgeStyle=orthogonalEdgeStyle;rounded=0;orthogonalLoop=1;jettySize=auto;html=1;" edge="1" parent="1" source="lr7paG35g0JCsMJMvGpv-93" target="hNo4_uOky3ZNRl5Zc9Kb-1">
          <mxGeometry relative="1" as="geometry" />
        </mxCell>
        <mxCell id="lr7paG35g0JCsMJMvGpv-93" value="사용자 ID, 패스워드, 이름 변경" style="shape=parallelogram;perimeter=parallelogramPerimeter;whiteSpace=wrap;html=1;fixedSize=1;rounded=1;glass=0;strokeWidth=1;shadow=0;" parent="1" vertex="1">
          <mxGeometry x="3317.75" y="3163" width="120" height="60" as="geometry" />
        </mxCell>
        <mxCell id="hNo4_uOky3ZNRl5Zc9Kb-5" value="" style="edgeStyle=orthogonalEdgeStyle;rounded=0;orthogonalLoop=1;jettySize=auto;html=1;" edge="1" parent="1" source="hNo4_uOky3ZNRl5Zc9Kb-1" target="hNo4_uOky3ZNRl5Zc9Kb-4">
          <mxGeometry relative="1" as="geometry" />
        </mxCell>
        <mxCell id="hNo4_uOky3ZNRl5Zc9Kb-1" value="사용자 ID&lt;br&gt;&amp;nbsp;공백 검사" style="rhombus;whiteSpace=wrap;html=1;rounded=1;glass=0;strokeWidth=1;shadow=0;" vertex="1" parent="1">
          <mxGeometry x="3337.75" y="3320" width="80" height="80" as="geometry" />
        </mxCell>
        <mxCell id="hNo4_uOky3ZNRl5Zc9Kb-3" value="" style="edgeStyle=orthogonalEdgeStyle;rounded=0;orthogonalLoop=1;jettySize=auto;html=1;entryX=0.5;entryY=0;entryDx=0;entryDy=0;exitX=0.5;exitY=1;exitDx=0;exitDy=0;" edge="1" parent="1" source="hNo4_uOky3ZNRl5Zc9Kb-1" target="lr7paG35g0JCsMJMvGpv-58">
          <mxGeometry relative="1" as="geometry">
            <mxPoint x="3375" y="3367" as="sourcePoint" />
            <mxPoint x="3388" y="3303" as="targetPoint" />
            <Array as="points">
              <mxPoint x="3375" y="3400" />
            </Array>
          </mxGeometry>
        </mxCell>
        <mxCell id="hNo4_uOky3ZNRl5Zc9Kb-4" value="필수 값이 입력되지 않았습니다." style="shape=document;whiteSpace=wrap;html=1;boundedLbl=1;rounded=1;glass=0;strokeWidth=1;shadow=0;" vertex="1" parent="1">
          <mxGeometry x="3520.1299999999997" y="3330" width="187.75" height="60" as="geometry" />
        </mxCell>
        <mxCell id="hNo4_uOky3ZNRl5Zc9Kb-6" value="" style="endArrow=none;html=1;rounded=0;" edge="1" parent="1">
          <mxGeometry width="50" height="50" relative="1" as="geometry">
            <mxPoint x="3700" y="4020" as="sourcePoint" />
            <mxPoint x="3760" y="4020" as="targetPoint" />
          </mxGeometry>
        </mxCell>
      </root>
    </mxGraphModel>
  </diagram>
</mxfile>
